<?xml version="1.0" standalone="no"?>
<!DOCTYPE svg PUBLIC "-//W3C//DTD SVG 20010904//EN"
 "http://www.w3.org/TR/2001/REC-SVG-20010904/DTD/svg10.dtd">
<svg version="1.0" xmlns="http://www.w3.org/2000/svg"
 viewBox="0 0 512 512"
 preserveAspectRatio="xMidYMid meet">

<g transform="translate(0.000000,512.000000) scale(0.100000,-0.100000)"
stroke="none">
<path d="M2914 5105 c-177 -32 -317 -139 -354 -270 l-13 -45 -71 0 c-119 0
-217 -36 -308 -111 -47 -39 -48 -39 -93 -28 -92 23 -199 -7 -277 -79 -135
-124 -135 -334 -2 -466 43 -42 140 -97 196 -111 l26 -7 4 -331 c4 -311 6 -337
28 -407 29 -97 29 -122 -5 -200 -23 -54 -29 -83 -33 -171 -4 -98 -2 -111 21
-162 27 -60 90 -134 150 -178 l37 -27 -75 -41 c-105 -58 -322 -205 -435 -295
-103 -82 -313 -277 -425 -394 -59 -62 -69 -78 -69 -109 0 -25 7 -41 23 -54 48
-39 64 -29 230 134 231 228 363 338 566 474 102 68 319 191 352 199 13 4 60
-1 105 -10 183 -36 289 -16 349 67 92 127 41 283 -117 360 -24 11 -44 24 -44
27 0 4 25 27 55 51 31 24 80 72 109 106 l54 62 68 -49 c83 -60 182 -178 313
-370 317 -466 634 -1146 881 -1890 69 -208 154 -490 148 -495 -11 -9 -148 -48
-228 -65 -103 -22 -130 -41 -130 -89 0 -16 10 -37 25 -51 21 -20 31 -22 78
-17 91 11 246 55 316 89 50 25 71 42 86 70 l19 36 -38 139 c-21 76 -85 277
-141 448 -226 681 -507 1303 -807 1781 -48 78 -88 144 -88 148 0 3 15 6 33 6
44 0 126 40 176 86 23 20 83 86 132 146 50 59 94 108 98 108 3 0 46 -40 95
-89 l88 -88 -13 -404 c-18 -539 -19 -507 10 -530 31 -25 64 -24 96 4 25 22 26
25 35 217 5 107 10 256 10 331 0 75 3 163 6 197 l7 60 40 -14 c101 -36 214 -8
294 71 53 54 83 122 83 191 0 45 -100 435 -149 583 -45 134 -95 241 -135 288
-26 31 -70 54 -307 166 -161 76 -266 142 -303 190 -38 50 -72 157 -117 377
-22 107 -49 214 -60 237 -27 55 -107 129 -173 158 -117 52 -283 67 -432 40z
m322 -159 c120 -37 154 -82 184 -243 12 -65 33 -167 48 -227 l26 -110 -80 -74
c-104 -99 -220 -184 -298 -222 -35 -16 -66 -30 -69 -30 -3 0 -7 94 -9 208 l-3
208 -38 76 c-47 96 -117 162 -221 209 -42 19 -76 39 -76 45 0 14 48 85 69 102
35 27 96 54 155 68 76 17 242 12 312 -10z m-562 -326 c36 -11 84 -35 108 -54
39 -30 43 -36 42 -77 -1 -108 -100 -235 -235 -302 -103 -51 -176 -68 -307 -74
l-114 -6 4 154 c3 136 6 160 27 207 30 66 106 137 170 156 71 22 226 20 305
-4z m-630 -118 c2 -4 -2 -32 -10 -62 -8 -32 -14 -103 -14 -172 0 -75 -4 -118
-10 -118 -24 0 -89 41 -118 74 -80 91 -55 219 52 267 42 19 91 25 100 11z
m831 -661 c-8 -16 -30 -38 -48 -50 -42 -25 -138 -51 -193 -51 -58 0 -74 -8
-89 -43 -15 -36 -3 -82 25 -97 10 -6 48 -10 84 -10 86 0 210 -18 259 -37 22
-9 128 -81 235 -161 107 -79 206 -149 219 -155 16 -7 30 -7 48 1 14 6 113 91
221 189 107 98 204 181 214 185 27 10 78 -10 86 -34 19 -60 -14 -113 -249
-396 -178 -216 -218 -252 -281 -252 -49 0 -40 -6 -296 188 -139 105 -210 152
-228 152 -18 0 -38 -14 -66 -47 -96 -111 -214 -222 -262 -246 l-51 -26 -79 44
c-89 50 -160 120 -193 189 -49 106 -54 143 -59 467 l-4 306 119 6 c220 10 410
84 533 207 l65 65 3 -183 c2 -146 -1 -188 -13 -211z m653 207 c-59 -119 -151
-268 -207 -338 l-21 -25 0 160 0 160 56 40 c30 21 87 69 127 106 71 66 72 67
92 48 19 -18 18 -20 -47 -151z m260 -7 c37 -21 143 -73 235 -116 158 -73 169
-80 194 -122 27 -47 87 -211 121 -331 l21 -74 -47 43 c-26 23 -107 98 -180
167 -74 68 -150 131 -170 139 -53 23 -139 21 -184 -3 -20 -10 -114 -89 -208
-174 -95 -85 -176 -157 -181 -158 -6 -2 -25 8 -44 23 l-35 26 69 83 c96 114
206 281 276 419 33 65 61 117 63 117 2 0 34 -17 70 -39z m-638 -291 l0 -170
-67 46 c-38 26 -80 51 -95 56 -16 6 -28 12 -28 14 0 2 14 23 30 46 17 24 35
66 42 94 12 49 13 51 62 66 28 9 52 16 54 17 1 0 2 -75 2 -169z m967 -336 c19
-49 -53 -151 -122 -174 -67 -22 -71 -7 -15 66 28 36 60 84 71 105 17 35 22 38
40 29 11 -6 23 -18 26 -26z m226 -213 c48 -49 89 -101 93 -116 17 -68 -52
-145 -131 -145 -46 0 -62 10 -168 104 l-67 60 43 27 c47 29 100 87 120 132 6
15 15 27 18 27 3 0 45 -40 92 -89z m-2004 -330 c33 -18 61 -34 61 -35 0 -2 -9
-24 -20 -48 -11 -25 -26 -69 -33 -99 -8 -29 -19 -55 -24 -56 -15 -5 -91 55
-127 100 -30 37 -31 43 -31 130 0 133 4 139 64 85 27 -24 76 -59 110 -77z
m296 -154 c94 -49 115 -78 96 -125 -7 -17 -23 -34 -35 -38 -28 -9 -98 -6 -165
7 l-53 11 6 44 c7 55 44 144 60 144 6 -1 47 -20 91 -43z"/>
<path d="M1022 1473 c-34 -13 -294 -388 -410 -591 -76 -132 -89 -177 -73 -239
60 -223 507 -362 1267 -393 l235 -9 84 -40 c185 -89 400 -147 645 -176 177
-21 583 -30 785 -17 154 10 160 11 182 37 13 14 23 35 23 45 0 32 -43 73 -76
73 -16 0 -150 -4 -299 -8 -482 -14 -806 26 -1078 131 -105 40 -221 101 -457
239 -398 232 -721 359 -952 372 -54 3 -98 8 -98 10 0 9 172 259 248 361 67 89
85 120 84 145 -1 51 -57 81 -110 60z m38 -753 c164 -46 465 -178 635 -278 82
-49 88 -48 -150 -27 -375 33 -652 100 -791 191 -83 55 -95 101 -32 130 47 21
239 13 338 -16z"/>
</g>
</svg>
