<?xml version="1.0" standalone="no"?>
<!DOCTYPE svg PUBLIC "-//W3C//DTD SVG 20010904//EN"
 "http://www.w3.org/TR/2001/REC-SVG-20010904/DTD/svg10.dtd">
<svg version="1.0"
    xmlns="http://www.w3.org/2000/svg" viewBox="0 0 512 512" preserveAspectRatio="xMidYMid meet">

    <g transform="translate(0.000000,512.000000) scale(0.100000,-0.100000)" stroke="none">
        <path d="M369 5091 l-29 -29 0 -234 0 -235 -47 10 c-65 13 -144 -10 -201 -59
-180 -154 -73 -444 162 -444 106 0 192 55 235 150 19 42 21 65 21 309 0 247 1
263 18 256 48 -20 109 -35 144 -35 48 0 98 43 98 85 0 36 -50 85 -87 85 -46 1
-105 34 -145 81 -73 86 -77 89 -108 89 -21 0 -41 -9 -61 -29z m-51 -687 c47
-54 10 -134 -63 -134 -88 0 -114 117 -35 157 33 17 70 8 98 -23z"/>
        <path d="M2395 5107 c-51 -20 -99 -54 -123 -87 -46 -62 -52 -99 -52 -320 l0
-207 -82 -17 c-363 -76 -748 -295 -1007 -572 -593 -633 -701 -1572 -269 -2327
116 -203 319 -434 505 -575 789 -597 1885 -524 2579 172 321 322 513 722 565
1176 16 143 7 414 -20 555 -144 772 -717 1379 -1473 1562 l-117 28 -3 220 c-3
243 -8 264 -73 330 -61 60 -94 70 -255 72 -95 1 -156 -2 -175 -10z m306 -186
l29 -29 0 -186 0 -186 -170 0 -170 0 0 186 0 186 29 29 c29 29 31 29 141 29
110 0 112 0 141 -29z m-231 -955 l0 -383 -107 -7 c-143 -9 -355 -40 -478 -70
-55 -13 -102 -23 -104 -21 -7 7 60 167 117 278 93 184 250 404 377 527 42 41
51 46 108 51 34 3 68 7 75 7 9 2 12 -81 12 -382z m273 374 c43 0 53 -5 99 -47
123 -116 285 -341 380 -530 56 -111 124 -271 117 -277 -2 -2 -38 4 -79 15
-123 31 -306 59 -462 71 l-148 12 0 384 0 384 23 -6 c12 -3 44 -6 70 -6z
m-745 -102 c-169 -223 -285 -436 -379 -691 l-46 -129 -125 -52 c-201 -84 -425
-216 -595 -352 l-33 -26 16 53 c150 503 470 891 924 1120 82 41 236 105 259
109 2 0 -8 -15 -21 -32z m1352 -72 c461 -230 783 -617 934 -1125 11 -38 12
-50 3 -44 -170 133 -264 195 -412 274 -55 30 -151 74 -214 100 l-113 46 -49
134 c-82 227 -221 481 -369 677 l-32 42 74 -26 c40 -14 120 -50 178 -78z
m-880 -1136 l0 -380 -423 0 -423 0 3 68 c9 172 68 540 91 564 10 9 180 54 302
78 111 23 310 47 398 49 l52 1 0 -380z m392 365 c149 -16 337 -51 462 -87 l80
-23 13 -50 c24 -91 62 -332 68 -432 3 -54 8 -110 10 -125 l5 -28 -425 0 -425
0 0 380 0 380 38 0 c20 0 99 -7 174 -15z m-1346 -208 c-16 -66 -46 -279 -51
-369 -3 -57 -8 -118 -11 -135 l-5 -33 -339 0 -340 0 0 28 c0 49 227 247 423
369 85 52 301 162 321 163 4 0 6 -10 2 -23z m2231 -42 c153 -75 300 -171 433
-283 121 -101 170 -155 170 -187 l0 -25 -339 0 -340 0 -5 43 c-2 23 -9 98 -15
167 -9 111 -31 262 -48 328 -3 12 -1 22 4 22 5 0 68 -29 140 -65z m-2293 -706
c3 -17 6 -55 6 -85 0 -64 24 -260 45 -363 8 -41 13 -76 10 -79 -9 -9 -268 125
-360 185 -194 128 -385 300 -385 346 l0 27 339 0 339 0 6 -31z m1016 -349 l0
-380 -37 0 c-139 1 -467 53 -637 102 l-80 23 -13 50 c-24 91 -62 332 -68 432
-3 54 -8 110 -10 126 l-4 27 424 0 425 0 0 -380z m1025 353 c-2 -16 -7 -72
-10 -126 -6 -100 -44 -341 -68 -432 l-13 -50 -80 -23 c-170 -49 -498 -101
-636 -102 l-38 0 0 380 0 380 425 0 425 0 -5 -27z m851 -5 c-10 -57 -228 -246
-419 -365 -92 -56 -315 -169 -322 -162 -2 2 7 67 20 144 13 77 27 187 30 245
3 58 8 120 11 138 l5 32 341 0 341 0 -7 -32z m-3356 -432 c134 -95 299 -186
458 -252 l125 -53 37 -103 c90 -253 217 -490 379 -705 l32 -42 -58 20 c-32 11
-113 46 -180 79 -464 224 -795 619 -947 1129 l-16 53 33 -26 c17 -14 79 -59
137 -100z m3294 72 c-129 -432 -377 -771 -744 -1015 -91 -61 -269 -151 -368
-187 l-74 -26 32 42 c148 196 287 450 369 677 l49 133 116 48 c194 81 390 193
547 314 46 36 85 66 86 66 1 0 -5 -23 -13 -52z m-2363 -472 c136 -30 295 -52
442 -62 l107 -7 0 -385 0 -384 -22 6 c-13 3 -45 6 -71 6 -43 0 -53 5 -99 48
-167 156 -359 449 -462 706 -40 100 -42 111 -22 103 7 -3 65 -17 127 -31z
m1419 26 c0 -14 -71 -184 -107 -256 -91 -183 -236 -389 -363 -518 -74 -76 -77
-78 -125 -78 -28 0 -60 -3 -72 -6 l-23 -6 0 384 0 385 108 7 c144 9 356 41
472 70 114 29 110 28 110 18z"/>
        <path d="M4039 4841 c-18 -14 -23 -31 -27 -79 -2 -34 -2 -73 2 -86 16 -65 95
-88 141 -41 22 21 25 33 25 100 0 67 -3 79 -25 100 -30 30 -83 33 -116 6z"/>
        <path d="M971 4754 c-29 -24 -31 -29 -31 -99 0 -63 3 -78 24 -101 18 -21 32
-28 61 -28 29 0 43 7 61 28 20 23 24 38 24 97 0 65 -2 73 -29 100 -36 36 -70
37 -110 3z"/>
        <path d="M3798 4594 c-48 -25 -54 -94 -12 -131 21 -20 36 -23 100 -23 66 0 78
3 99 25 35 34 33 78 -4 116 -27 26 -36 29 -93 29 -36 -1 -75 -7 -90 -16z"/>
        <path d="M4230 4598 c-55 -29 -64 -95 -18 -138 18 -16 35 -20 99 -20 75 0 78
1 104 32 31 36 29 79 -5 113 -25 24 -142 33 -180 13z"/>
        <path d="M4723 4586 l-28 -24 -3 -239 -3 -238 -61 3 c-112 7 -192 -36 -243
-129 -90 -166 30 -370 220 -372 70 -1 121 19 173 67 79 72 82 83 82 389 0 147
1 267 3 267 1 0 26 -9 55 -20 75 -29 146 -27 177 5 55 54 19 126 -70 145 -66
14 -109 42 -153 100 -57 74 -100 88 -149 46z m-55 -689 c15 -14 22 -32 22 -57
0 -91 -125 -115 -160 -30 -17 41 2 88 43 105 36 15 64 9 95 -18z"/>
        <path d="M705 4488 c-31 -36 -29 -79 5 -113 25 -24 142 -33 180 -13 55 29 64
95 18 138 -18 16 -35 20 -99 20 -75 0 -78 -1 -104 -32z"/>
        <path d="M1135 4495 c-35 -34 -33 -78 4 -116 26 -26 36 -29 91 -29 73 0 117
20 127 58 11 41 5 65 -23 90 -21 19 -36 22 -100 22 -66 0 -78 -3 -99 -25z"/>
        <path d="M4064 4430 c-39 -16 -54 -49 -54 -123 0 -62 3 -71 29 -98 18 -17 40
-29 56 -29 16 0 38 12 56 29 27 27 29 35 29 100 0 58 -4 74 -22 95 -26 29 -63
39 -94 26z"/>
        <path d="M965 4325 c-22 -21 -25 -33 -25 -100 0 -67 3 -79 25 -100 30 -30 83
-33 116 -6 18 14 23 31 27 79 2 34 2 73 -2 86 -16 65 -95 88 -141 41z"/>
        <path d="M311 1699 c-41 -16 -50 -39 -51 -120 0 -90 15 -116 71 -125 28 -5 41
-1 64 18 24 21 29 34 33 87 5 73 -10 116 -49 136 -32 17 -35 17 -68 4z"/>
        <path d="M44 1438 c-24 -11 -44 -48 -44 -79 0 -11 13 -34 29 -50 27 -27 35
-29 100 -29 58 0 74 4 96 23 39 33 39 91 1 123 -23 20 -37 24 -94 23 -37 0
-77 -5 -88 -11z"/>
        <path d="M455 1425 c-34 -33 -34 -87 1 -121 24 -24 30 -26 106 -22 69 3 82 6
99 27 27 33 25 86 -6 116 -21 22 -33 25 -100 25 -67 0 -79 -3 -100 -25z"/>
        <path d="M285 1255 c-22 -21 -25 -33 -25 -103 0 -69 3 -81 23 -99 33 -30 54
-34 91 -19 43 18 60 59 54 137 -4 52 -9 66 -32 86 -36 30 -80 30 -111 -2z"/>
        <path d="M625 1085 l-25 -24 0 -239 0 -240 -42 10 c-46 10 -119 -2 -167 -27
-42 -21 -106 -98 -119 -143 -30 -98 0 -206 73 -271 53 -46 94 -61 169 -61 115
0 214 76 246 188 5 21 10 147 10 286 0 232 1 248 18 241 60 -26 93 -34 135
-35 38 0 53 5 72 25 49 48 25 126 -42 140 -92 20 -127 43 -209 139 -39 45 -82
49 -119 11z m-68 -674 c74 -46 41 -150 -49 -151 -91 0 -106 131 -18 163 25 9
34 8 67 -12z"/>
        <path d="M4723 1086 l-28 -24 -3 -240 -3 -240 -37 9 c-94 21 -206 -30 -258
-118 -55 -92 -55 -175 0 -265 44 -74 107 -111 196 -116 85 -5 126 8 183 59 84
73 87 87 87 393 0 251 1 268 18 261 75 -31 158 -44 197 -29 19 8 45 55 45 84
0 31 -53 80 -86 80 -43 0 -112 38 -147 82 -60 75 -75 88 -106 88 -17 0 -42
-10 -58 -24z m-55 -688 c48 -46 13 -138 -53 -138 -47 0 -64 8 -81 42 -21 41
-10 85 29 109 37 22 71 18 105 -13z"/>
        <path d="M3699 741 c-27 -27 -29 -35 -29 -101 0 -66 2 -74 29 -101 18 -17 40
-29 56 -29 16 0 38 12 56 29 27 27 29 35 29 101 0 66 -2 74 -29 101 -38 38
-74 38 -112 0z"/>
        <path d="M3444 486 c-36 -30 -39 -86 -6 -119 18 -17 36 -22 97 -25 72 -4 75
-3 105 26 32 32 37 60 18 95 -20 38 -40 46 -115 47 -61 0 -76 -3 -99 -24z"/>
        <path d="M3882 503 c-17 -6 -42 -57 -42 -83 0 -12 13 -35 29 -51 26 -26 36
-29 90 -29 80 0 109 12 126 54 17 41 8 76 -27 100 -22 16 -144 22 -176 9z"/>
        <path d="M3695 314 c-22 -24 -25 -36 -25 -101 0 -65 3 -77 25 -98 16 -17 35
-25 60 -25 25 0 44 8 60 25 22 21 25 33 25 90 0 96 -25 134 -88 135 -23 0 -40
-8 -57 -26z"/>
    </g>
</svg>
